<svg xmlns="http://www.w3.org/2000/svg" width="634.244" height="625.875" viewBox="0 0 634.244 625.875">
  <g id="Php_Development_Illustration" data-name="Php Development Illustration" transform="translate(-970.071 -200.341)">
    <g id="Group_6448" data-name="Group 6448" transform="translate(1453.813 231.675)">
      <rect id="Rectangle_1345" data-name="Rectangle 1345" width="84.311" height="60.106" transform="translate(0.042)" fill="#ff4500"/>
      <path id="Path_4212" data-name="Path 4212" d="M444.065,61.16c0,.2-19.039.37-42.5.37s-42.518-.171-42.518-.37,19.039-.37,42.518-.37S444.065,60.947,444.065,61.16Z" transform="translate(-359.043 -52.238)" fill="#fff"/>
      <path id="Path_4213" data-name="Path 4213" d="M364.6,58.3a1.153,1.153,0,1,1-1.3-.986,1.2,1.2,0,0,1,.161-.01,1.066,1.066,0,0,1,1.137.992Z" transform="translate(-357.665 -53.715)" fill="#fff"/>
      <path id="Path_4214" data-name="Path 4214" d="M367.464,58.3a1.054,1.054,0,0,1-1.107,1h-.017a1.01,1.01,0,1,1,1.124-1Z" transform="translate(-356.336 -53.721)" fill="#fff"/>
      <ellipse id="Ellipse_42" data-name="Ellipse 42" cx="1.138" cy="0.996" rx="1.138" ry="0.996" transform="translate(12.92 3.529)" fill="#fff"/>
      <path id="Path_4215" data-name="Path 4215" d="M384.925,79.616c0,3.614-2.6,5.791-6.916,5.791h-4.553v5.35h-1.793V73.81h6.346C382.321,73.81,384.925,75.987,384.925,79.616Zm-1.779,0c0-2.7-1.793-4.269-5.194-4.269h-4.5v8.467h4.5C381.353,83.828,383.146,82.277,383.146,79.616Z" transform="translate(-353.705 -46.731)" fill="#fff"/>
      <path id="Path_4216" data-name="Path 4216" d="M397.861,73.81V90.758H396.1V82.931H385.5v7.826H383.7V73.81H385.5v7.556h10.6V73.81Z" transform="translate(-348.613 -46.731)" fill="#fff"/>
      <path id="Path_4217" data-name="Path 4217" d="M410.805,79.616c0,3.614-2.6,5.791-6.916,5.791h-4.553v5.35h-1.793V73.81h6.346C408.187,73.81,410.805,75.987,410.805,79.616Zm-1.793,0c0-2.7-1.793-4.269-5.18-4.269h-4.5v8.467h4.5c3.372.014,5.165-1.537,5.165-4.2Z" transform="translate(-342.759 -46.731)" fill="#fff"/>
    </g>
    <rect id="Rectangle_1346" data-name="Rectangle 1346" width="178.184" height="119.301" transform="translate(1366.467 319.386)" fill="#fff"/>
    <path id="Path_4218" data-name="Path 4218" d="M475.928,235.865V203.407c0-20.733-.071-50.529-.128-86.8l.256.256H297.886l.327-.313v119.3l-.3-.3,128.366.142,36.684.085h.114l-36.6.071-128.565.142h-.285V116.08H476.383v.256c0,36.385-.1,66.239-.142,87v30.181A8.014,8.014,0,0,1,475.928,235.865Z" transform="translate(1068.794 202.822)" fill="#e0e0e0"/>
    <path id="Path_4219" data-name="Path 4219" d="M297.66,124c0-.171,39.843-.327,89.021-.327s89.021.157,89.021.327-39.843.313-89.021.313S297.66,124.14,297.66,124Z" transform="translate(1068.807 206.033)" fill="#e0e0e0"/>
    <g id="Group_6449" data-name="Group 6449" transform="translate(1370.65 323.228)" opacity="0.3">
      <path id="Path_4220" data-name="Path 4220" d="M303.446,120.543a1.423,1.423,0,1,1-1.423-1.423A1.423,1.423,0,0,1,303.446,120.543Z" transform="translate(-300.6 -119.12)" fill="#e0e0e0"/>
    </g>
    <g id="Group_6450" data-name="Group 6450" transform="translate(1375.546 323.228)" opacity="0.3">
      <circle id="Ellipse_43" data-name="Ellipse 43" cx="1.423" cy="1.423" r="1.423" fill="#e0e0e0"/>
    </g>
    <g id="Group_6451" data-name="Group 6451" transform="translate(1380.369 323.228)" opacity="0.3">
      <path id="Path_4221" data-name="Path 4221" d="M310.276,120.543a1.423,1.423,0,1,1-1.423-1.423A1.423,1.423,0,0,1,310.276,120.543Z" transform="translate(-307.43 -119.12)" fill="#e0e0e0"/>
    </g>
    <rect id="Rectangle_1347" data-name="Rectangle 1347" width="47.527" height="47.527" transform="translate(1381.793 342.467)" fill="#e0e0e0"/>
    <path id="Path_4222" data-name="Path 4222" d="M430.322,142.173c0,.185-18.5.327-41.394.327s-41.408-.142-41.408-.327,18.5-.313,41.408-.313S430.322,142.059,430.322,142.173Z" transform="translate(1089.896 213.726)" fill="#e0e0e0"/>
    <path id="Path_4223" data-name="Path 4223" d="M430.322,148.383c0,.171-18.5.313-41.394.313s-41.408-.142-41.408-.313,18.5-.313,41.408-.313S430.322,148.212,430.322,148.383Z" transform="translate(1089.896 216.353)" fill="#e0e0e0"/>
    <path id="Path_4224" data-name="Path 4224" d="M430.322,154.6c0,.171-18.5.313-41.394.313s-41.408-.142-41.408-.313,18.5-.327,41.408-.327S430.322,154.412,430.322,154.6Z" transform="translate(1089.896 218.975)" fill="#e0e0e0"/>
    <path id="Path_4225" data-name="Path 4225" d="M396.476,160.793a9.867,9.867,0,0,1-1.921.128l-5.251.1c-4.425,0-10.544.1-17.289.1s-12.807,0-17.3-.1l-5.251-.1a9.868,9.868,0,0,1-1.921-.128,10.851,10.851,0,0,1,1.921-.114l5.251-.1c4.425-.071,10.544-.1,17.3-.1s12.807,0,17.289.1l5.251.1A10.834,10.834,0,0,1,396.476,160.793Z" transform="translate(1089.904 221.602)" fill="#e0e0e0"/>
    <rect id="Rectangle_1348" data-name="Rectangle 1348" width="22.341" height="22.341" transform="translate(1384.767 406.016)" fill="#e0e0e0"/>
    <rect id="Rectangle_1349" data-name="Rectangle 1349" width="22.341" height="22.341" transform="translate(1425.278 406.016)" fill="#e0e0e0"/>
    <rect id="Rectangle_1350" data-name="Rectangle 1350" width="22.341" height="22.341" transform="translate(1465.775 406.016)" fill="#e0e0e0"/>
    <rect id="Rectangle_1351" data-name="Rectangle 1351" width="22.341" height="22.341" transform="translate(1506.288 406.016)" fill="#e0e0e0"/>
    <path id="Path_4226" data-name="Path 4226" d="M66.214,154.668l-5.037.726-3.017-7.855,4.269-2.846a20.291,20.291,0,0,1,.128-5.493l-4.084-3.031,3.415-7.7,4.995.982a20.545,20.545,0,0,1,3.984-3.785l-.74-5.037,7.855-3.031,2.846,4.269a20.822,20.822,0,0,1,5.493.142l2.974-4.112,7.7,3.415-1,4.995a20.428,20.428,0,0,1,3.785,3.97l5.037-.726,3.159,7.912-4.269,2.846a20.177,20.177,0,0,1-.142,5.493l4.084,3.031-3.415,7.7-4.995-.982a20.026,20.026,0,0,1-3.97,3.785l.74,5.037L88.142,167.4,85.3,163.135a20.718,20.718,0,0,1-5.478-.142l-3.045,4.084-7.7-3.415.982-4.995a21.336,21.336,0,0,1-3.785-3.97ZM74.78,146.1l.043.11a10.128,10.128,0,1,0-.014-.053Z" transform="translate(967.507 203.465)" fill="none"/>
    <path id="Path_4227" data-name="Path 4227" d="M71.2,143.341a9.032,9.032,0,0,0,4.824,3.344,8.865,8.865,0,0,0,8.225-1.864A8.2,8.2,0,0,0,85.88,142.9a8.323,8.323,0,0,0,1.067-2.4,8.794,8.794,0,0,0-6.133-10.772,8.453,8.453,0,0,0-2.5-.313,8.781,8.781,0,0,0-7.357,4.141,9.07,9.07,0,0,0-1.338,5.692,10.973,10.973,0,0,0,.441,2.163,6.567,6.567,0,0,1-.64-2.134,8.98,8.98,0,0,1,1.224-5.934,9.192,9.192,0,0,1,7.656-4.5,8.939,8.939,0,0,1,2.647.327,8.834,8.834,0,0,1,2.547,1.124,9.385,9.385,0,0,1,3.657,4.468,9.27,9.27,0,0,1,.285,5.777,8.721,8.721,0,0,1-1.124,2.547,8.506,8.506,0,0,1-1.75,2.006,9.131,9.131,0,0,1-13.532-1.722,6.822,6.822,0,0,1-.968-2.021A17.431,17.431,0,0,0,71.2,143.341Z" transform="translate(972.23 208.218)" fill="#e0e0e0"/>
    <path id="Path_4228" data-name="Path 4228" d="M65.839,154.653l-.968.171-3.728.583h0v-.071L58.07,147.5v-.085h.085l4.269-2.846-.071.142a20.781,20.781,0,0,1,.114-5.535l.071.171-4.084-3.031-.128-.085v-.142c1.081-2.419,2.206-4.995,3.4-7.7l.071-.157h.157l4.995.968-.2.085a20.626,20.626,0,0,1,4-3.842l-.085.213c-.228-1.551-.484-3.273-.74-5.037v-.171h.171l7.855-3.045h.185l.1.157,2.846,4.269-.242-.114a21,21,0,0,1,5.564.142l-.242.085c.953-1.238,1.992-2.661,3.031-4.084l.128-.157.185.085,7.7,3.4.185.085v.213c-.3,1.565-.64,3.273-.982,4.995l-.085-.256a20.968,20.968,0,0,1,3.913,3.913h0c-.114-.114.256.1-.242-.114h.626l.64-.1,1.252-.185,2.519-.356h.2l.071.185,3.031,7.855v.2l-.171.114-4.269,2.846.114-.242a21.193,21.193,0,0,1-.142,5.55l-.1-.228,4.084,3.045.157.114-.085.185-3.415,7.684-.085.171h-.185l-4.995-1,.228-.085a20.871,20.871,0,0,1-4.027,3.828l.1-.213q.356,2.589.726,5.037v.171h-.157l-7.869,3.017h-.142l-.085-.128-2.846-4.269.185.085a20.905,20.905,0,0,1-5.535-.157l.157-.071-3.045,4.07-.085.1h-.1l-7.684-3.458H68.97v.071c.4-1.992.74-3.557,1.01-4.98v.085a19.548,19.548,0,0,1-2.846-2.946c-.3-.356-.5-.626-.626-.811l-.185-.285.213.256.655.783a20.836,20.836,0,0,0,2.974,2.846h0c-.256,1.366-.569,3-.953,5.009v-.128l7.712,3.372h-.185l3.031-4.1v-.085h.114a20.219,20.219,0,0,0,5.436.128h.114v.1l2.846,4.269-.242-.071,7.855-3.045-.128.228c-.242-1.636-.5-3.3-.754-5.023v-.142l.114-.085a20.272,20.272,0,0,0,3.927-3.742l.085-.114h.142l4.995.982-.27.142q1.68-3.757,3.4-7.712l.085.3-4.084-3.031-.128-.085v-.157a20.229,20.229,0,0,0,.128-5.421v-.157l.128-.085,4.269-2.846-.1.3-2.9-7.812.285.171-2.5.356-1.266.185-.64.1h-.626l-.242-.1h0a20.521,20.521,0,0,0-3.742-3.927l-.128-.1v-.157c.327-1.708.669-3.415.982-4.98l.142.285-7.7-3.429h.313l-3.045,4.07-.085.128h-.157a21.15,21.15,0,0,0-5.422-.142h-.142l-.085-.128-2.846-4.269.285.085-7.855,3.017.142-.242c.256,1.75.5,3.472.726,5.037v.128l-.114.085a20.23,20.23,0,0,0-3.942,3.728l-.085.114h-.128l-4.98-1,.213-.114-3.429,7.684v-.228l4.07,3.059h.085v.1a20.866,20.866,0,0,0-.157,5.45v.085h-.085l-4.269,2.846v-.157c1.224,3.2,2.22,5.863,2.988,7.869h-.085l3.771-.512.953-.114h.313Z" transform="translate(967.469 203.381)" fill="#e0e0e0"/>
    <path id="Path_4229" data-name="Path 4229" d="M34.368,135.966l-4.169.612-2.519-6.517,3.515-2.348a16.774,16.774,0,0,1,.114-4.553l-3.387-2.519,2.846-6.389,4.141.811a17.329,17.329,0,0,1,3.3-3.145l-.612-4.169,6.531-2.519,2.348,3.515a16.774,16.774,0,0,1,4.553.114l2.533-3.387,6.375,2.846-.811,4.141a16.87,16.87,0,0,1,3.145,3.3l4.169-.612,2.519,6.517-3.515,2.348a16.774,16.774,0,0,1-.114,4.553l3.387,2.533-2.846,6.375-4.141-.811a16.911,16.911,0,0,1-3.3,3.145l.612,4.169L52.525,146.5l-2.348-3.515a16.773,16.773,0,0,1-4.553-.114l-2.533,3.387-6.375-2.846.811-4.141a16.911,16.911,0,0,1-3.145-3.3Zm7.072-7.115.019.047a7.5,7.5,0,0,0,9.729,4.222l.021-.009a7.5,7.5,0,1,0-9.712-4.26Z" transform="translate(954.615 198.233)" fill="#e0e0e0"/>
    <path id="Path_4230" data-name="Path 4230" d="M54.847,113.849,48.3,114.8,44.36,104.585l5.507-3.785a27.262,27.262,0,0,1,.185-7.115l-5.308-3.956,4.44-9.961,6.5,1.281a26.972,26.972,0,0,1,5.165-4.923l-.925-6.574L70.144,65.61,73.83,71.1a27.2,27.2,0,0,1,7.115.185L84.9,65.98l9.961,4.44-1.281,6.5a26.954,26.954,0,0,1,4.881,5.251l6.546-.953,3.942,10.217-5.493,3.685a27.2,27.2,0,0,1-.185,7.115l5.308,3.956-4.44,9.961-6.489-1.281a27.05,27.05,0,0,1-5.18,4.923l.953,6.546-10.217,3.942-3.685-5.493a27.2,27.2,0,0,1-7.115-.185l-3.956,5.308-9.961-4.44,1.281-6.489a27.049,27.049,0,0,1-4.923-5.18Zm11.076-11.2A11.741,11.741,0,0,0,81.1,109.38l.011,0a11.754,11.754,0,1,0-15.194-6.741Z" transform="translate(961.67 181.475)" fill="#e0e0e0"/>
    <g id="Group_6452" data-name="Group 6452" transform="translate(1091.166 200.341)">
      <path id="Path_4231" data-name="Path 4231" d="M137.28,67.167a5.789,5.789,0,0,1,.754-.84l2.163-2.177c1.836-1.821,4.4-4.269,7.257-7.029h.071v.356c-2.846-2.661-5.464-5.108-7.314-6.887l-2.177-2.12a5.79,5.79,0,0,1-.754-.84,4.448,4.448,0,0,1,.882.7l2.291,2.006c1.907,1.708,4.539,4.112,7.414,6.788l.2.171-.2.185-.071.071c-2.846,2.718-5.45,5.165-7.357,6.916l-2.277,2.063A4.434,4.434,0,0,1,137.28,67.167Z" transform="translate(-90.194 -26.471)" fill="#e0e0e0"/>
      <path id="Path_4232" data-name="Path 4232" d="M124.841,47.59a5.187,5.187,0,0,1-.754.854l-2.092,2.163c-1.836,1.821-4.4,4.269-7.257,7.029l-.071.071v-.37c2.846,2.675,5.464,5.108,7.314,6.887l2.177,2.134a6.185,6.185,0,0,1,.754.825,4.026,4.026,0,0,1-.882-.683c-.626-.541-1.423-1.224-2.291-2.006-1.907-1.722-4.525-4.112-7.414-6.788l-.185-.185.185-.185h.071c2.846-2.732,5.45-5.18,7.357-6.93l2.277-2.049A4.28,4.28,0,0,1,124.841,47.59Z" transform="translate(-99.982 -26.487)" fill="#e0e0e0"/>
      <path id="Path_4233" data-name="Path 4233" d="M125.661,73.246c-.128,0,2.206-6.6,5.208-14.628s5.55-14.514,5.692-14.457-2.191,6.6-5.208,14.628S125.818,73.3,125.661,73.246Z" transform="translate(-95.11 -27.938)" fill="#e0e0e0"/>
      <path id="Path_4234" data-name="Path 4234" d="M176.519,92.1V75.9c0-10.274,0-24.959-.114-42.689l.213.213h-72.23l.256-.256V92.041l-.228-.228,52.166.114h14.884L156.726,92l-52.308.114h-.228V32.76h72.7v.213c0,17.759-.085,32.5-.114,42.8V90.789A3.61,3.61,0,0,1,176.519,92.1Z" transform="translate(-104.19 -32.76)" fill="#e0e0e0"/>
      <path id="Path_4235" data-name="Path 4235" d="M177.072,39.306c0,.142-16.307.256-36.414.256s-36.428-.114-36.428-.256,16.307-.256,36.428-.256S177.072,39.164,177.072,39.306Z" transform="translate(-104.173 -30.1)" fill="#e0e0e0"/>
      <path id="Path_4236" data-name="Path 4236" d="M108.984,36.5a.982.982,0,0,1-.982.982h0a.982.982,0,1,1,.982-.982Z" transform="translate(-102.993 -31.593)" fill="#e0e0e0"/>
      <circle id="Ellipse_44" data-name="Ellipse 44" cx="0.968" cy="0.968" r="0.968" transform="translate(7.585 3.942)" fill="#e0e0e0"/>
      <path id="Path_4237" data-name="Path 4237" d="M113.964,36.5a.982.982,0,1,1-.982-.982.982.982,0,0,1,.982.982Z" transform="translate(-100.887 -31.593)" fill="#e0e0e0"/>
    </g>
    <g id="Group_6456" data-name="Group 6456" transform="translate(1231.271 228.686)">
      <rect id="Rectangle_1352" data-name="Rectangle 1352" width="167.028" height="67.847" transform="translate(0.342 0.512)" fill="#fff"/>
      <path id="Path_4238" data-name="Path 4238" d="M370.019,121.039V102.811c0-11.711,0-28.644-.1-49.619l.185.185-167.013.085h0l.128-.327v67.847l-.256-.256,119.757.128,34.735.071H322.834l-119.927.114h-.256V52.68H370.133v.455c0,21.017-.071,37.993-.1,49.733v16.948C370.033,120.612,370.019,121.039,370.019,121.039Z" transform="translate(-202.65 -52.68)" fill="#e0e0e0"/>
      <path id="Path_4239" data-name="Path 4239" d="M203.05,59.546c0-.142,37.339-.256,83.386-.256s83.386.114,83.386.256-37.324.27-83.386.27S203.05,59.7,203.05,59.546Z" transform="translate(-202.481 -49.884)" fill="#e0e0e0"/>
      <g id="Group_6453" data-name="Group 6453" transform="translate(5.08 4.369)" opacity="0.3">
        <path id="Path_4240" data-name="Path 4240" d="M208.639,56.96a1.209,1.209,0,0,1-1.21,1.21h0a1.21,1.21,0,1,1,1.21-1.21Z" transform="translate(-206.22 -55.75)" fill="#ebebeb"/>
      </g>
      <g id="Group_6454" data-name="Group 6454" transform="translate(9.235 4.369)" opacity="0.3">
        <path id="Path_4241" data-name="Path 4241" d="M211.559,56.96a1.209,1.209,0,0,1-1.21,1.21h0a1.21,1.21,0,1,1,1.21-1.21Z" transform="translate(-209.14 -55.75)" fill="#ebebeb"/>
      </g>
      <g id="Group_6455" data-name="Group 6455" transform="translate(13.319 4.368)" opacity="0.3">
        <circle id="Ellipse_45" data-name="Ellipse 45" cx="1.21" cy="1.21" r="1.21" fill="#ebebeb"/>
      </g>
      <rect id="Rectangle_1353" data-name="Rectangle 1353" width="40.341" height="40.341" transform="translate(14.529 20.69)" fill="#e0e0e0"/>
      <path id="Path_4242" data-name="Path 4242" d="M339.715,74.9c0,.142-20.761.27-46.36.27s-46.374-.128-46.374-.27,20.761-.27,46.374-.27S339.715,74.758,339.715,74.9Z" transform="translate(-183.9 -43.396)" fill="#e0e0e0"/>
      <path id="Path_4243" data-name="Path 4243" d="M339.715,80.68c0,.142-20.761.256-46.36.256s-46.374-.114-46.374-.256,20.761-.27,46.374-.27S339.715,80.524,339.715,80.68Z" transform="translate(-183.9 -40.951)" fill="#e0e0e0"/>
      <path id="Path_4244" data-name="Path 4244" d="M306.673,86.4a1.832,1.832,0,0,1-.6,0h-1.75l-6.389.085-21.1.085-21.117-.085-6.389-.085h-1.75a1.832,1.832,0,0,1-.6,0,3.492,3.492,0,0,1,.6,0h1.75l6.389-.085h42.219l6.389.085h1.75A3.491,3.491,0,0,1,306.673,86.4Z" transform="translate(-183.9 -38.456)" fill="#e0e0e0"/>
    </g>
    <g id="freepik--Floor--inject-13" transform="translate(970.071 786.702)">
      <path id="Path_4245" data-name="Path 4245" d="M336.2,444.83c175.181,0,317.136.171,317.136.37s-142.012.37-317.136.37S19.09,445.4,19.09,445.2,161.017,444.83,336.2,444.83Z" transform="translate(-19.09 -444.83)" fill="#263238"/>
    </g>
    <rect id="Rectangle_1354" data-name="Rectangle 1354" width="199.4" height="162.446" transform="translate(1023.718 346.408)" fill="#e0e0e0"/>
    <rect id="Rectangle_1355" data-name="Rectangle 1355" width="199.4" height="162.446" transform="translate(1037.89 356.725)" fill="#ebebeb"/>
    <rect id="Rectangle_1356" data-name="Rectangle 1356" width="204.722" height="166.786" transform="translate(1051.736 368.037)" fill="#fff"/>
    <path id="Path_4246" data-name="Path 4246" d="M281.249,317.552V305.571c0-7.8,0-19.224-.071-33.8,0-29.114-.1-70.764-.171-120.952l.313.313H76.626l.37-.37V317.552l-.341-.342,147.988.171,41.864.085h.128l-41.792.085L76.7,317.723H76.37V150.24H281.775v.313c-.071,50.316-.128,92.037-.157,121.208,0,14.529-.071,25.941-.085,33.724v8.837A15.7,15.7,0,0,1,281.249,317.552Z" transform="translate(975.209 217.271)" fill="#263238"/>
    <path id="Path_4247" data-name="Path 4247" d="M280.982,160.47c0,.213-45.663.37-101.984.37s-102-.157-102-.37,45.649-.37,102-.37S280.982,160.271,280.982,160.47Z" transform="translate(975.475 221.441)" fill="#263238"/>
    <path id="Path_4248" data-name="Path 4248" d="M82.068,155.629a1.309,1.309,0,1,1-1.309-1.309A1.309,1.309,0,0,1,82.068,155.629Z" transform="translate(976.512 218.997)" fill="#263238"/>
    <circle id="Ellipse_46" data-name="Ellipse 46" cx="1.309" cy="1.309" r="1.309" transform="translate(1060.999 373.317)" fill="#263238"/>
    <path id="Path_4249" data-name="Path 4249" d="M89.167,155.629a1.323,1.323,0,1,1-1.338-1.309h.028A1.322,1.322,0,0,1,89.167,155.629Z" transform="translate(979.502 218.997)" fill="#263238"/>
    <path id="Path_4250" data-name="Path 4250" d="M88.12,237.434c0-42.717.171-77.324.37-77.324s.37,34.635.37,77.324-.171,77.31-.37,77.31C88.348,314.744,88.12,280.151,88.12,237.434Z" transform="translate(980.179 221.446)" fill="#e0e0e0"/>
    <rect id="Rectangle_1357" data-name="Rectangle 1357" width="56.193" height="40.056" transform="translate(1512.662 460.744)" fill="#ff4500"/>
    <path id="Path_4251" data-name="Path 4251" d="M457.028,219.981c0,.1-12.679.185-28.317.185s-28.331-.085-28.331-.185,12.679-.171,28.331-.171S457.028,219.881,457.028,219.981Z" transform="translate(1112.254 246.697)" fill="#fff"/>
    <path id="Path_4252" data-name="Path 4252" d="M404.068,218.079a.712.712,0,0,1-.754.655.7.7,0,0,1-.753-.636v-.019a.711.711,0,0,1,.751-.669h0a.712.712,0,0,1,.754.666Z" transform="translate(1113.176 245.681)" fill="#fff"/>
    <path id="Path_4253" data-name="Path 4253" d="M406.013,218.078a.768.768,0,1,1-.656-.657A.769.769,0,0,1,406.013,218.078Z" transform="translate(1113.992 245.683)" fill="#fff"/>
    <path id="Path_4254" data-name="Path 4254" d="M407.955,218.079a.769.769,0,1,1-.861-.662.677.677,0,0,1,.092-.007A.726.726,0,0,1,407.955,218.079Z" transform="translate(1114.811 245.681)" fill="#fff"/>
    <g id="freepik--Character--inject-13" transform="translate(1137.358 353.612)">
      <path id="Path_4255" data-name="Path 4255" d="M408.546,273.579A16.592,16.592,0,0,0,391.941,257H311.089L264.9,385.679H207.226A13.961,13.961,0,0,0,193.3,398.884h0c-.013.253-.019.505-.019.758a13.959,13.959,0,0,0,13.992,13.927l150.834-.413a13.133,13.133,0,0,0,12.579-9.406L407.85,278.345A16.583,16.583,0,0,0,408.546,273.579Z" transform="translate(-112.702 -91.186)" fill="#455a64"/>
      <path id="Path_4256" data-name="Path 4256" d="M288.74,354.3c18.968,0,34.336.228,34.336.527s-15.368.526-34.336.526-34.35-.228-34.35-.526S269.772,354.3,288.74,354.3Z" transform="translate(-86.853 -50.031)" fill="#263238"/>
      <path id="Path_4257" data-name="Path 4257" d="M327.68,327.214c-12.394,37.225-22.668,67.192-22.938,67.107s9.534-30.281,21.928-67.434,22.668-67.192,22.938-67.107S340.074,289.99,327.68,327.214Z" transform="translate(-65.559 -90.01)" fill="#263238"/>
      <path id="Path_4258" data-name="Path 4258" d="M258.8,366.74h9.192V478.016l-9.192.213Z" transform="translate(-84.988 -44.77)" fill="#455a64"/>
      <path id="Path_4259" data-name="Path 4259" d="M279.914,435.26h-9.192L231.96,448.736h85.563Z" transform="translate(-96.34 -15.788)" fill="#455a64"/>
      <path id="Path_4260" data-name="Path 4260" d="M350.079,246.2a42.077,42.077,0,0,0-36.727-39.558h-.427c-2.348-.27-4.2-.455-5.535-.626a54.564,54.564,0,0,1-32.942,0h0a44.646,44.646,0,0,0-13.646,2.618,56.166,56.166,0,0,0-21.757,14.087h0L205.79,282.988l18.157,35.1,23.337-45.222-.114,38.42-3.728,46.389L338.61,373.5,336.077,320.5l14.158-70.736Z" transform="translate(-107.41 -112.749)" fill="#ff4500"/>
      <path id="Path_4261" data-name="Path 4261" d="M291.988,278.088l33.667.285L325,248.063c-4.838-41.294-43.941-41.593-43.941-41.593Z" transform="translate(-75.573 -112.558)" fill="#ff4500"/>
      <path id="Path_4262" data-name="Path 4262" d="M284.068,243.43c37.965,0,68.715.242,68.715.526s-30.708.541-68.658.541-68.715-.242-68.715-.541S246.1,243.43,284.068,243.43Z" transform="translate(-103.341 -96.925)" fill="#fafafa"/>
      <path id="Path_4263" data-name="Path 4263" d="M284.125,248.03c37.965,0,68.715.256,68.715.541s-30.765.527-68.715.527-68.715-.242-68.715-.527S246.16,248.03,284.125,248.03Z" transform="translate(-103.341 -94.98)" fill="#fafafa"/>
      <path id="Path_4264" data-name="Path 4264" d="M284.512,239.63c37.353,0,67.619.242,67.619.527s-30.238.541-67.577.541-67.605-.242-67.605-.541S247.16,239.63,284.512,239.63Z" transform="translate(-102.689 -98.533)" fill="#fafafa"/>
      <path id="Path_4265" data-name="Path 4265" d="M234.461,269.621c-.455-20.633-.569-37.381-.285-37.381s.9,16.734,1.352,37.367.583,37.381.285,37.381S234.916,290.254,234.461,269.621Z" transform="translate(-95.469 -101.658)" fill="#263238"/>
      <path id="Path_4266" data-name="Path 4266" d="M253.607,292.84s-15.055-3.017-18.086-3.187-2.22-8.851-2.22-8.851l-5.066,8.993a5.232,5.232,0,0,1-3.33,1.039c-1.921-.1,3.159-14.03,6.489-18.925s21.828-6.218,21.828-6.218Z" transform="translate(-99.503 -87.51)" fill="#ffbe9d"/>
      <path id="Path_4267" data-name="Path 4267" d="M309.981,250.25l-.854,32.372-64.361-12.394-.157,30.58,74.578,15.368a18.113,18.113,0,0,0,21.942-16.72l-.071-47.684Z" transform="translate(-90.99 -94.041)" fill="#ff4500"/>
      <path id="Path_4268" data-name="Path 4268" d="M297.563,316.692l-2.917-.512-11.014-2.063-38.918-7.542-.384-.071V274.06l.626.128,13.12,2.5,51.227,9.961-.541.441c-.327-14.187-.6-26-.8-34.379-.057-4.07-.142-7.3-.142-9.605v-2.533a6.8,6.8,0,0,1,0-.868,3.8,3.8,0,0,1,.1.868c.043.64.142,1.48.142,2.519.1,2.305.228,5.535.4,9.605.285,8.367.7,20.149,1.181,34.379v.455l-.555-.114-51.227-9.747-13.12-2.519.626-.526v31.4l-.384-.455,38.861,7.983,10.957,2.319,2.846.655a6.457,6.457,0,0,1,.982.27A4.9,4.9,0,0,1,297.563,316.692Z" transform="translate(-91.108 -98.499)" fill="#263238"/>
      <path id="Path_4269" data-name="Path 4269" d="M252.316,209.583a18.021,18.021,0,0,0,.655,7.741,20.819,20.819,0,0,0,6.4,9.477,19.383,19.383,0,0,0,12.921,4.8,17.668,17.668,0,0,0,12.721-5.066,18.489,18.489,0,0,0,4.952-10.217,17.984,17.984,0,0,0-.583-7.741c-.555-1.779-1.053-2.718-1.01-2.732s.185.2.441.626a10.97,10.97,0,0,1,.953,1.964,16.871,16.871,0,0,1,.939,7.983,18.85,18.85,0,0,1-4.995,10.8,18.5,18.5,0,0,1-13.419,5.45,20.127,20.127,0,0,1-13.575-5.137,21.093,21.093,0,0,1-6.46-9.961,17.208,17.208,0,0,1-.356-8.026,14.387,14.387,0,0,1,.583-2.106,3.57,3.57,0,0,1,.3-.7C252.9,206.765,252.558,207.761,252.316,209.583Z" transform="translate(-88.038 -112.825)" fill="#263238"/>
      <path id="Path_4270" data-name="Path 4270" d="M249.574,292.485c-.3-2.931-.555-6.916-.583-11.384s.185-8.538.455-11.384a18.78,18.78,0,0,1,.711-4.667,23.052,23.052,0,0,1,0,4.71c-.157,2.9-.185,6.9-.157,11.313s.171,8.452.285,11.3a22.27,22.27,0,0,1,0,4.71A19.335,19.335,0,0,1,249.574,292.485Z" transform="translate(-89.138 -87.781)" fill="#fafafa"/>
      <path id="Path_4271" data-name="Path 4271" d="M252.3,292.9c-.228-2.889-.4-6.873-.427-11.27s.128-8.424.313-11.27a19.035,19.035,0,0,1,.583-4.639,21.885,21.885,0,0,1,.171,4.667v11.284c.043,4.112.114,7.94.114,11.227a23.192,23.192,0,0,1-.128,4.681A19.4,19.4,0,0,1,252.3,292.9Z" transform="translate(-87.92 -87.498)" fill="#fafafa"/>
      <path id="Path_4272" data-name="Path 4272" d="M240.1,430.144s-19.11,41.75-20.121,45.108c-.882,2.889-30.48,15.354-38.548,18.7a4.269,4.269,0,0,1-3.856-.327h0c-.061-.04-.121-.08-.181-.122a4.269,4.269,0,0,1-1-5.954L196.4,460.069,210.49,421.25Z" transform="translate(-120.177 -21.714)" fill="#ff4500"/>
      <g id="Group_6457" data-name="Group 6457" transform="translate(57.342 450.934)" opacity="0.6">
        <path id="Path_4273" data-name="Path 4273" d="M177.007,478.345a4.269,4.269,0,0,0,3.97.37c22.383-9.406,32.344-14.486,35.9-16.407a6.454,6.454,0,0,0,2.846-3.3l.64-1.636L176.95,478.345Z" transform="translate(-176.95 -457.37)" fill="#fff"/>
      </g>
      <g id="Group_6458" data-name="Group 6458" transform="translate(95.847 435.404)" opacity="0.6">
        <path id="Path_4274" data-name="Path 4274" d="M205.7,446.561a2.56,2.56,0,0,1,3.145,1.622,2.688,2.688,0,0,1-1.964,3.045,2.462,2.462,0,0,1-2.846-1.878A2.548,2.548,0,0,1,205.9,446.5" transform="translate(-204.009 -446.456)" fill="#fff"/>
      </g>
      <path id="Path_4275" data-name="Path 4275" d="M189.776,463.264a6.772,6.772,0,0,0-4.881-5.322c-.953-.213-1.523-.256-1.565,0s2.291.555,4.1,2.576a12.654,12.654,0,0,1,2.22,4.269C189.748,464.787,189.9,464.2,189.776,463.264Z" transform="translate(-116.91 -6.269)" fill="#263238"/>
      <path id="Path_4276" data-name="Path 4276" d="M184.107,463.375c-1.992-1.565-4.127-1.466-4.127-1.224a31.669,31.669,0,0,1,3.572,1.935c1.764,1.352,2.519,3.088,2.761,2.988C186.554,467.046,186.1,464.94,184.107,463.375Z" transform="translate(-118.326 -4.473)" fill="#263238"/>
      <path id="Path_4277" data-name="Path 4277" d="M192.536,456.382c-2.718-2.5-5.72-3.1-5.806-2.846s2.661,1.224,5.194,3.557,3.7,4.995,3.956,4.881C196.108,461.946,195.254,458.887,192.536,456.382Z" transform="translate(-115.472 -8.081)" fill="#263238"/>
      <path id="Path_4278" data-name="Path 4278" d="M195.465,449.225c-2.917-1.295-5.521-1.024-5.535-.811s2.433.455,5.165,1.637,4.511,2.9,4.7,2.7C199.919,452.625,198.382,450.519,195.465,449.225Z" transform="translate(-114.118 -10.301)" fill="#263238"/>
      <path id="Path_4279" data-name="Path 4279" d="M202.122,443.255a9.249,9.249,0,0,0-7.826-2.732c-1.081.171-1.722.341-1.665.6s2.632-.313,5.607.7,4.61,3.116,4.81,2.946C203.175,444.692,202.891,444.08,202.122,443.255Z" transform="translate(-112.977 -13.594)" fill="#263238"/>
      <path id="Path_4280" data-name="Path 4280" d="M202,438a4.335,4.335,0,0,1,2.348-1.138.925.925,0,0,1,.911.583,1.97,1.97,0,0,1-.114,1.423,5.167,5.167,0,0,1-5.891,2.675,6.2,6.2,0,0,1-4.425-5.023,1.656,1.656,0,0,1,.342-1.266.881.881,0,0,1,1.067-.1,5.563,5.563,0,0,1,1.807,1.964,18.8,18.8,0,0,1,2.078,5.237,3.5,3.5,0,0,0,0-1.565,12.364,12.364,0,0,0-1.423-4.013,5.918,5.918,0,0,0-2.021-2.305,1.694,1.694,0,0,0-1.949.2,2.42,2.42,0,0,0-.612,1.907,6.917,6.917,0,0,0,5.037,5.848,5.975,5.975,0,0,0,6.958-3.3,2.747,2.747,0,0,0,0-1.964,1.708,1.708,0,0,0-1.651-1.053,4.781,4.781,0,0,0-2.761,1.423,10.82,10.82,0,0,0-2.632,3.358,3.808,3.808,0,0,0-.527,1.423A15.838,15.838,0,0,1,202,438Z" transform="translate(-112.355 -16.213)" fill="#263238"/>
      <path id="Path_4281" data-name="Path 4281" d="M198.038,414l-.171,49.22-61.188.171c.342-5.848,31.988-17.687,31.988-17.687l-1.21-31.547Z" transform="translate(-136.641 -24.78)" fill="#ff4500"/>
      <g id="Group_6459" data-name="Group 6459" transform="translate(47.988 418.167)" opacity="0.6">
        <path id="Path_4282" data-name="Path 4282" d="M173.555,434.467a2.518,2.518,0,0,0-3.131,1.494,2.646,2.646,0,0,0,1.821,3.031,2.4,2.4,0,0,0,2.846-1.75,2.5,2.5,0,0,0-1.736-2.846" transform="translate(-170.376 -434.343)" fill="#fff"/>
      </g>
      <g id="Group_6460" data-name="Group 6460" transform="translate(0 433.531)" opacity="0.6">
        <path id="Path_4283" data-name="Path 4283" d="M136.677,450.22c-.313-1.921,2.4-3.116,2.4-3.116l58.854-1.964v4.909Z" transform="translate(-136.652 -445.14)" fill="#fff"/>
      </g>
      <path id="Path_4284" data-name="Path 4284" d="M162,436.677c1.807,1.124,2.248,2.846,1.978,2.974s-1.053-1.11-2.533-2.092-2.974-1.124-2.974-1.423C158.4,435.866,160.192,435.553,162,436.677Z" transform="translate(-127.425 -15.526)" fill="#263238"/>
      <path id="Path_4285" data-name="Path 4285" d="M157,439.37c1.295,1.551,1.11,3.244.811,3.259s-.583-1.323-1.608-2.59-2.319-1.764-2.248-2.063C153.951,437.691,155.7,437.819,157,439.37Z" transform="translate(-129.337 -14.69)" fill="#263238"/>
      <path id="Path_4286" data-name="Path 4286" d="M151.157,442.262c-.683-1.352-1.551-2.22-1.423-2.476s1.508.4,2.291,2.035.37,3.059.1,3.059C151.826,444.852,151.84,443.614,151.157,442.262Z" transform="translate(-131.125 -13.896)" fill="#263238"/>
      <path id="Path_4287" data-name="Path 4287" d="M162.077,430.272c1.992.1,3.273,1.167,3.116,1.423s-1.48-.242-3.173-.384-3.059.27-3.187,0C158.691,431.069,160.085,430.173,162.077,430.272Z" transform="translate(-127.275 -17.901)" fill="#263238"/>
      <g id="Group_6461" data-name="Group 6461" transform="translate(31.06 395.623)" opacity="0.3">
        <path id="Path_4288" data-name="Path 4288" d="M188.818,418.7l-.028,5.066-30.1.356-.213-5.621Z" transform="translate(-158.48 -418.5)"/>
      </g>
      <path id="Path_4289" data-name="Path 4289" d="M161.728,427.262a17.171,17.171,0,0,0,2.96-1.138,15.583,15.583,0,0,0,1.622-.925,3.143,3.143,0,0,0,.683-.541c.071-.185.213-.057,0-.341s-.768-.285-1.423-.1a10.6,10.6,0,0,0-1.75.541,11.894,11.894,0,0,0-2.732,1.551c-1.451,1.1-2.177,2.006-2.277,1.935s.384-1.181,1.807-2.5a10.763,10.763,0,0,1,2.846-1.864,11.87,11.87,0,0,1,1.907-.655,3.866,3.866,0,0,1,1.153-.171,1.649,1.649,0,0,1,1.309.683,1.309,1.309,0,0,1-.128,1.594,4.269,4.269,0,0,1-.925.726,14.143,14.143,0,0,1-1.764.939,14.4,14.4,0,0,1-3.2,1,5.954,5.954,0,0,1-3.074,0A19.631,19.631,0,0,1,161.728,427.262Z" transform="translate(-127.31 -20.952)" fill="#263238"/>
      <path id="Path_4290" data-name="Path 4290" d="M160.224,426.788a10.954,10.954,0,0,0-.6-3.059,10.729,10.729,0,0,0-.768-1.651,2.195,2.195,0,0,0-1.081-1.01c-.242-.057-.484.47-.569,1.11a6.312,6.312,0,0,0,0,1.779,6.858,6.858,0,0,0,.982,2.846,12.493,12.493,0,0,0,1.864,2.248c-.028.1-1.281-.256-2.476-1.836a7.12,7.12,0,0,1-1.323-3.159,6.689,6.689,0,0,1,0-2.063,4.523,4.523,0,0,1,.313-1.138,1.426,1.426,0,0,1,1.281-.854,2.56,2.56,0,0,1,1.964,1.523,11.178,11.178,0,0,1,.783,1.85,10.236,10.236,0,0,1,.427,3.358,5.1,5.1,0,0,1-.8,2.974C160.053,429.648,160.366,428.538,160.224,426.788Z" transform="translate(-128.396 -22.242)" fill="#263238"/>
      <path id="Path_4291" data-name="Path 4291" d="M187.167,307.713a35.247,35.247,0,0,0-34.716,35.77l.8,140.2h42.433s3.771-123.755,3.273-125.306,69.967,17.076,69.967,17.076l6.546-58.9s-47.968-4.923-84.154-8.666A35.065,35.065,0,0,0,187.167,307.713Z" transform="translate(-129.972 -69.738)" fill="#263238"/>
      <path id="Path_4292" data-name="Path 4292" d="M288.929,303.461c-.7-.285-1.423-.555-2.12-.8-20.733-7.1-43.173,5.08-49.633,26.026-15.809,51.3-50.046,161.834-50.046,163.428s50.558,10.658,50.558,10.658l44.2-136.9,3.671,2.689c6.176,4.44,18.043,9.961,25.613,9.961h9.619c12.423,0,26.581-13.177,26.581-25.613V334.652S311.639,312.539,288.929,303.461Z" transform="translate(-115.302 -72.731)" fill="#263238"/>
      <path id="Path_4293" data-name="Path 4293" d="M187.248,490.726c.128-.4.27-.882.455-1.494l1.821-5.692,6.517-21.159c5.464-17.986,12.892-42.689,21.117-69.967,4.127-13.66,8.054-26.681,11.626-38.534l5.094-16.791c.811-2.633,1.579-5.18,2.334-7.613a67.26,67.26,0,0,1,2.391-6.987,28.657,28.657,0,0,1,7.428-10.245,56.8,56.8,0,0,1,7.656-5.692c2.206-1.409,3.97-2.419,5.18-3.074l1.423-.74a1.813,1.813,0,0,1,.484-.228,1.751,1.751,0,0,1-.441.313l-1.323.84c-1.181.711-2.9,1.807-5.066,3.23a61.126,61.126,0,0,0-7.485,5.82,28.469,28.469,0,0,0-7.115,10.117,67.007,67.007,0,0,0-2.305,6.93q-1.08,3.656-2.277,7.613c-1.565,5.279-3.23,10.914-4.995,16.834-3.557,11.868-7.442,24.888-11.54,38.562C210,420.09,202.488,444.807,196.8,462.636c-2.817,8.922-5.137,16.136-6.83,21.074-.825,2.49-1.523,4.4-2.006,5.692-.228.555-.413,1.039-.569,1.423a2.531,2.531,0,0,1-.213.484C187.149,491.309,187.12,491.124,187.248,490.726Z" transform="translate(-115.292 -71.937)" fill="#455a64"/>
      <path id="Path_4294" data-name="Path 4294" d="M184.813,339.164c2.106,5.037,2.561,9.448,2.248,9.505s-1.224-4.184-3.23-9.093-4.411-8.523-4.155-8.694C179.889,330.711,182.707,334.126,184.813,339.164Z" transform="translate(-118.463 -59.939)" fill="#455a64"/>
      <path id="Path_4295" data-name="Path 4295" d="M181.934,338.959c3.97,3.088,6.1,6.6,5.848,6.788s-2.7-2.96-6.5-5.962-7.442-4.61-7.328-4.9C174.05,334.634,177.964,335.872,181.934,338.959Z" transform="translate(-120.878 -58.255)" fill="#455a64"/>
      <path id="Path_4296" data-name="Path 4296" d="M247.985,409.285c14.457-45.293,26.353-81.92,26.666-81.835S263.5,364.319,249.038,409.6s-26.4,81.906-26.666,81.82S233.528,454.578,247.985,409.285Z" transform="translate(-100.398 -61.388)" fill="#455a64"/>
      <path id="Path_4297" data-name="Path 4297" d="M311.494,309.9l-41.992-.64L245.084,240.7,139.87,239.99l26.979,76.242,144.644-1.394Z" transform="translate(-135.291 -98.38)" fill="#455a64"/>
      <path id="Path_4298" data-name="Path 4298" d="M178.777,269.888v-.013a5.7,5.7,0,1,1,0,.013Z" transform="translate(-118.86 -88.564)" fill="#fff"/>
      <path id="Path_4299" data-name="Path 4299" d="M285.114,150.572c3.87-3.031,11.768.484,14.9,5.279s3.273,10.174,2.689,15.866a75.4,75.4,0,0,1-8.609,28.047c-.413.8-1.124,1.679-1.964,1.423a2.009,2.009,0,0,1-1.024-1.423c-1.523-4.909-1.636-10.117-1.893-15.254s-.811-10.373-3.1-14.984-6.688-8.481-11.825-8.751a16.235,16.235,0,0,0-10.473,3.842c-3.017,2.305-5.521,5.18-8.367,7.712a20.943,20.943,0,0,1-9.8,5.493c-3.742.7-8.026-.5-10.1-3.671s-.968-8.253,2.59-9.562a7.456,7.456,0,0,1-3.529-14.23c5.208-2.448,11.611,1.636,17.076-.256,3.33-1.153,5.464-4.24,8.31-6.375a16.334,16.334,0,0,1,14.941-2.419c4.966,1.693,8.737,4.184,10.16,9.264" transform="translate(-97.072 -140.473)" fill="#263238"/>
      <path id="Path_4300" data-name="Path 4300" d="M266.1,145.378l-1.423.142a27.137,27.137,0,0,0-24.19,27.648c.285,13.148.882,27.691,1.708,34.678,1.722,14.457,16.435,15.169,16.435,15.169.057.441.228,4.112.413,8.381.413,9.164,4.383,21.743,17.844,22.767h0c15.51,0,16.862-14.486,16.421-24.276l-2.632-57.573C290.372,157.146,281.279,144.681,266.1,145.378Z" transform="translate(-92.739 -138.41)" fill="#ffbe9d"/>
      <path id="Path_4301" data-name="Path 4301" d="M253.57,205.748c14.585-.242,17.929-11.128,17.929-11.128a33.8,33.8,0,0,1-18.3,7.371Z" transform="translate(-87.357 -117.57)" fill="#eb996e"/>
      <path id="Path_4302" data-name="Path 4302" d="M244.168,171.968a1.978,1.978,0,0,1,1.938-2.016,2.078,2.078,0,0,1,2.206,1.878l0,.061a1.978,1.978,0,0,1-1.924,2.031,2.078,2.078,0,0,1-2.22-1.878Z" transform="translate(-91.177 -128.006)" fill="#263238"/>
      <path id="Path_4303" data-name="Path 4303" d="M243.882,169.283a5.439,5.439,0,0,1,3.1-1.423,5.765,5.765,0,0,1,3.387.669c.768.441,1.2.74.982,1.039s-1.949-.64-4.184-.413-3.671,1.551-3.956,1.309C243.071,170.365,243.256,169.852,243.882,169.283Z" transform="translate(-91.6 -128.903)" fill="#263238"/>
      <path id="Path_4304" data-name="Path 4304" d="M259.559,170.9a1.992,1.992,0,0,1,1.937-2.046,2.106,2.106,0,0,1,2.22,1.878v.017a2.007,2.007,0,0,1-1.937,2.075,2.078,2.078,0,0,1-2.22-1.878Z" transform="translate(-84.667 -128.471)" fill="#263238"/>
      <path id="Path_4305" data-name="Path 4305" d="M259.282,167.944a5.527,5.527,0,0,1,3.1-1.423,5.7,5.7,0,0,1,3.387.669c.768.441,1.2.726.982,1.025s-1.949-.655-4.184-.413-3.671,1.565-3.956,1.323C258.471,169.011,258.656,168.5,259.282,167.944Z" transform="translate(-85.086 -129.471)" fill="#263238"/>
      <path id="Path_4306" data-name="Path 4306" d="M252.273,186.441a3.907,3.907,0,0,1-.982,0,1.423,1.423,0,0,1-1.01-.74,3.241,3.241,0,0,1,0-2.263c.356-1.437.74-2.946,1.138-4.525,1.679-6.4,3.244-11.554,3.515-11.483s-.9,5.322-2.576,11.725c-.427,1.565-.825,3.074-1.224,4.5a3.061,3.061,0,0,0-.2,1.736c.142.427.683.427,1.266.427a14.555,14.555,0,0,1,3.685.27A15.119,15.119,0,0,1,252.273,186.441Z" transform="translate(-88.678 -129.071)" fill="#263238"/>
      <path id="Path_4307" data-name="Path 4307" d="M261.3,182.681a5.244,5.244,0,0,1-1.508,3.643,6.086,6.086,0,0,1-3.742,1.779c-1.1.085-1.708.014-1.722-.327s2.59-.341,4.468-2.277,1.636-4.368,1.992-4.368C260.9,181.1,261.288,181.671,261.3,182.681Z" transform="translate(-86.879 -123.276)" fill="#263238"/>
      <path id="Path_4308" data-name="Path 4308" d="M258.77,161.681a8.8,8.8,0,0,1,7.8,0c.911.5,1.338,1.025,1.224,1.295-.3.526-2.476.1-5.123,0s-4.838.484-5.123-.1C257.418,162.606,257.86,162.079,258.77,161.681Z" transform="translate(-85.528 -131.888)" fill="#263238"/>
      <path id="Path_4309" data-name="Path 4309" d="M243.926,164.555a5.227,5.227,0,0,1,2.846-1.338,5.311,5.311,0,0,1,3.145.5c.74.413,1.039.9.9,1.167-.3.583-1.907.356-3.742.583s-3.315.911-3.757.455C243.115,165.693,243.271,165.138,243.926,164.555Z" transform="translate(-91.572 -130.877)" fill="#263238"/>
      <path id="Path_4310" data-name="Path 4310" d="M276.673,186.444c.028.285,10.16,1.594,9.42-8.339s-10.132-6.062-10.373-5.934C275.72,172.172,276.645,186.16,276.673,186.444Z" transform="translate(-77.832 -127.424)" fill="#ffbe9d"/>
      <path id="Path_4311" data-name="Path 4311" d="M278.678,182a1.85,1.85,0,0,0,1.594.157c1.409-.526,2.291-2.476,2.206-4.482a5.941,5.941,0,0,0-.8-2.718,2.461,2.461,0,0,0-1.921-1.423,1.286,1.286,0,0,0-.939.327,1.057,1.057,0,0,0-.356.64c-.043.427.1.583.185.569s-.028-.213.085-.5a.9.9,0,0,1,.982-.555,2.019,2.019,0,0,1,1.423,1.238,5.751,5.751,0,0,1,.669,2.433,4.339,4.339,0,0,1-1.707,4,1.808,1.808,0,0,1-1.295.071,3.155,3.155,0,0,1-.484-.228C278.293,181.542,278.364,181.77,278.678,182Z" transform="translate(-76.734 -126.491)" fill="#eb996e"/>
      <path id="Path_4312" data-name="Path 4312" d="M239.879,160.392a18.978,18.978,0,0,1,5.336-7.656A32.381,32.381,0,0,1,263.2,144.07a26.375,26.375,0,0,1,19.2,4.923A28,28,0,0,1,291.5,162.17a40.811,40.811,0,0,1,1.793,16.051,12.275,12.275,0,0,1-1.992,6.731c-.911,1.181-2.59,2.078-3.856,1.295a3.97,3.97,0,0,1-1.423-2.163c-2.718-7.442-5.464-15.439-3.458-23.095a22.734,22.734,0,0,0-7.485-5.55,11.871,11.871,0,0,0-9.121-.27c-4.269,1.836-6.531,6.418-9.733,9.776a21.074,21.074,0,0,1-18.129,6.161" transform="translate(-93.744 -139.051)" fill="#263238"/>
    </g>
    <g id="freepik--Devices--inject-13" transform="translate(979.036 432)">
      <path id="Path_4325" data-name="Path 4325" d="M95.2,195.56,121.9,308.928h7.584L102.372,195.56Z" transform="translate(4.138 -195.56)" fill="#263238"/>
      <path id="Path_4326" data-name="Path 4326" d="M114.711,262.9l-9.633,48.979H98.93s12.764-61.8,12.28-63.877Z" transform="translate(5.715 -173.38)" fill="#263238"/>
      <rect id="Rectangle_1359" data-name="Rectangle 1359" width="126.971" height="134.598" transform="translate(26.653 220.232)" fill="#ff4500"/>
      <rect id="Rectangle_1360" data-name="Rectangle 1360" width="6.233" height="6.233" transform="translate(20.434 239.898)" fill="#263238"/>
      <rect id="Rectangle_1361" data-name="Rectangle 1361" width="6.233" height="6.233" transform="translate(20.434 259.691)" fill="#263238"/>
      <rect id="Rectangle_1362" data-name="Rectangle 1362" width="6.233" height="6.233" transform="translate(20.434 279.485)" fill="#263238"/>
      <rect id="Rectangle_1363" data-name="Rectangle 1363" width="6.233" height="6.233" transform="translate(20.434 299.278)" fill="#263238"/>
      <path id="Path_4327" data-name="Path 4327" d="M43.363,393.412a36.962,36.962,0,0,0-5.293-.27,14.136,14.136,0,0,0-7.357,2.077,8.254,8.254,0,0,0-3.913,7.912A10.944,10.944,0,0,0,31.367,411a16.678,16.678,0,0,0,7.115,2.96,28.408,28.408,0,0,0,5.279.413,12.059,12.059,0,0,1,1.949,0,8.505,8.505,0,0,1-1.949.27,24.079,24.079,0,0,1-5.365-.185,16.723,16.723,0,0,1-7.428-2.931,12.826,12.826,0,0,1-3.273-3.472,10.748,10.748,0,0,1-1.622-4.881,8.911,8.911,0,0,1,4.269-8.538,14.359,14.359,0,0,1,7.712-2.035,30.4,30.4,0,0,1,5.35.512,10.042,10.042,0,0,1,1.907.413A9.622,9.622,0,0,1,43.363,393.412Z" transform="translate(-25.12 -112.22)" fill="#263238"/>
      <path id="Path_4328" data-name="Path 4328" d="M42.967,379.212a15.022,15.022,0,0,0-7.115-.171,4.27,4.27,0,0,0-3.486,2.846,5.784,5.784,0,0,0,1.423,5.066,5.568,5.568,0,0,0,2.348,1.708,3.373,3.373,0,0,0,2.846-.157,2.585,2.585,0,0,0-.043-4.781,4.853,4.853,0,0,0-3.145-.313,6.817,6.817,0,0,0-2.846,1.352,7.868,7.868,0,0,0-2.931,5.165,7.413,7.413,0,0,0,1.423,5.194,11.162,11.162,0,0,0,3.657,3.2,19.741,19.741,0,0,0,6.859,2.021c1.693.213,2.647.342,2.647.342a2.206,2.206,0,0,1-.7,0c-.455,0-1.124-.028-1.978-.1a18.5,18.5,0,0,1-7.115-1.85,11.512,11.512,0,0,1-3.9-3.287,7.948,7.948,0,0,1-1.622-5.692,8.542,8.542,0,0,1,3.159-5.692,7.716,7.716,0,0,1,3.173-1.508,5.458,5.458,0,0,1,3.629.384,3.585,3.585,0,0,1,2.021,3.088,3.515,3.515,0,0,1-1.978,2.988,4.139,4.139,0,0,1-3.429.185,6.76,6.76,0,0,1-4.055-7.613,4.027,4.027,0,0,1,1.636-2.22,6.686,6.686,0,0,1,2.319-.925,14.555,14.555,0,0,1,7.3.413,12.9,12.9,0,0,1,1.85.74,2.6,2.6,0,0,1,.583.356C45.472,380.024,44.632,379.568,42.967,379.212Z" transform="translate(-23.757 -118.326)" fill="#263238"/>
      <path id="Path_4329" data-name="Path 4329" d="M39.334,366.659a10.855,10.855,0,0,0-4.4,3.145,10.374,10.374,0,0,0-.37,12.38,10.675,10.675,0,0,0,4.2,3.415,14.04,14.04,0,0,0,4.952,1.067,3.288,3.288,0,0,1-1.423.171,9.949,9.949,0,0,1-3.771-.768,10.729,10.729,0,0,1-4.582-3.486,10.607,10.607,0,0,1-2.049-6.688,10.464,10.464,0,0,1,2.462-6.546,10.765,10.765,0,0,1,4.738-3.2,9.961,9.961,0,0,1,3.814-.47,3.359,3.359,0,0,1,1.423.256A14.013,14.013,0,0,0,39.334,366.659Z" transform="translate(-22.643 -123.617)" fill="#263238"/>
      <path id="Path_4330" data-name="Path 4330" d="M141.077,300.81a18.709,18.709,0,0,0-.669,1.921,51.761,51.761,0,0,0-1.551,7.641c-.47,3.358-.868,7.485-1.281,12.294s-.768,10.288-1.508,16.336q-.269,2.262-.726,4.61a20.578,20.578,0,0,1-1.423,4.738,17.034,17.034,0,0,1-3.216,4.013,24.3,24.3,0,0,1-4.2,3.259,24.559,24.559,0,0,1-10.5,3.614,20.744,20.744,0,0,1-11.6-1.978,14.234,14.234,0,0,1-7.627-9.548,11.214,11.214,0,0,1,.455-6.474,11.383,11.383,0,0,1,4.2-5.094,12.677,12.677,0,0,1,6.389-2.134,10.242,10.242,0,0,1,6.546,1.935,7.406,7.406,0,0,1,2.291,2.7,5.761,5.761,0,0,1,.455,3.557,8.263,8.263,0,0,1-4.269,5.521A18.784,18.784,0,0,1,106.1,349.6a61.568,61.568,0,0,1-6.83.47,102.82,102.82,0,0,1-13.347-.768c-8.694-.982-17.061-2.291-25.03-2.476s-15.667.982-22.07,4.084a25.749,25.749,0,0,0-8.154,6.033,18.828,18.828,0,0,0-4.269,8.282A22.77,22.77,0,0,0,28.72,380.88a26.958,26.958,0,0,0,8.239,8.965,32.873,32.873,0,0,0,6.873,3.657c.825.313,1.466.555,1.907.683l.655.242a21.528,21.528,0,0,1-2.618-.783,31.769,31.769,0,0,1-6.973-3.557,26.933,26.933,0,0,1-8.438-9.007,23.007,23.007,0,0,1-2.49-16.008,19.058,19.058,0,0,1,4.269-8.538,26.344,26.344,0,0,1,8.31-6.218c6.5-3.244,14.343-4.354,22.355-4.269s16.435,1.48,25.087,2.448a107.284,107.284,0,0,0,13.262.74,60.039,60.039,0,0,0,6.745-.47,18.135,18.135,0,0,0,6.489-1.793,7.5,7.5,0,0,0,3.942-5.009,4.962,4.962,0,0,0-.4-3.1,6.647,6.647,0,0,0-2.063-2.433,9.493,9.493,0,0,0-6.076-1.779,11.838,11.838,0,0,0-6,1.992,10.692,10.692,0,0,0-3.942,4.767,10.461,10.461,0,0,0-.427,6.048,13.591,13.591,0,0,0,7.243,9.107,20.2,20.2,0,0,0,11.213,1.935,24.331,24.331,0,0,0,14.358-6.659A16.687,16.687,0,0,0,133.35,348a20.2,20.2,0,0,0,1.423-4.582c.313-1.551.555-3.088.754-4.582.768-6.019,1.153-11.512,1.608-16.307s.9-8.936,1.423-12.294a48.084,48.084,0,0,1,1.693-7.641,12.265,12.265,0,0,1,1.067-2.519A6.411,6.411,0,0,1,141.077,300.81Z" transform="translate(-25.39 -151.356)" fill="#263238"/>
      <path id="Path_4331" data-name="Path 4331" d="M49.206,477.163v-8.3c-.085-5.82-.085-14.329-.085-25.144-.043-21.672-.1-52.65-.171-89.647v-.256H164.424v124.3H164.1l-83.372-.157-23.237-.085-6.261-.114h6.233l23.322-.085,83.158-.157-.313.313V354.147l.37.37H49.235l.327-.327c-.071,36.94-.171,67.819-.171,89.49-.085,10.829-.085,19.367-.085,25.215v8.979A2.6,2.6,0,0,1,49.206,477.163Z" transform="translate(-15.425 -128.622)" fill="#263238"/>
      <path id="Path_4332" data-name="Path 4332" d="M72.533,364.322a.574.574,0,0,1,.185,0,.6.6,0,0,1-.185,1.181h-.014a.591.591,0,0,1,.014-1.181Z" transform="translate(-5.697 -124.183)" fill="#263238"/>
      <path id="Path_4333" data-name="Path 4333" d="M70.223,364.322a.574.574,0,0,1,.185,0,.6.6,0,0,1-.185,1.181h-.014a.591.591,0,0,1,.014-1.181Z" transform="translate(-6.674 -124.183)" fill="#263238"/>
      <path id="Path_4334" data-name="Path 4334" d="M67.943,364.322a.574.574,0,0,1,.185,0,.6.6,0,0,1-.185,1.181h-.014a.591.591,0,0,1,.014-1.181Z" transform="translate(-7.638 -124.183)" fill="#263238"/>
      <path id="Path_4335" data-name="Path 4335" d="M65.678,364.32h.014a.605.605,0,1,1-.014,0Z" transform="translate(-8.602 -124.18)" fill="#263238"/>
      <path id="Path_4336" data-name="Path 4336" d="M63.4,364.32a.6.6,0,0,1,0,1.181h0a.591.591,0,1,1,0-1.181Z" transform="translate(-9.567 -124.18)" fill="#263238"/>
      <path id="Path_4337" data-name="Path 4337" d="M61.118,364.32a.6.6,0,0,1,0,1.181h0a.591.591,0,1,1,0-1.181Z" transform="translate(-10.531 -124.18)" fill="#263238"/>
      <path id="Path_4338" data-name="Path 4338" d="M58.838,364.32a.6.6,0,0,1,0,1.181h0a.591.591,0,1,1,0-1.181Z" transform="translate(-11.495 -124.18)" fill="#263238"/>
      <circle id="Ellipse_47" data-name="Ellipse 47" cx="0.583" cy="0.583" r="0.583" transform="translate(48.253 242.331)" fill="#263238"/>
      <circle id="Ellipse_48" data-name="Ellipse 48" cx="0.583" cy="0.583" r="0.583" transform="translate(51.569 242.331)" fill="#263238"/>
      <path id="Path_4339" data-name="Path 4339" d="M63.95,366.433a.583.583,0,0,1,.583-.583h0a.6.6,0,0,1,.6.6v.014a.582.582,0,0,1-.6.569h0a.584.584,0,0,1-.583-.583Z" transform="translate(-9.08 -123.533)" fill="#263238"/>
      <circle id="Ellipse_49" data-name="Ellipse 49" cx="0.583" cy="0.583" r="0.583" transform="translate(58.2 242.331)" fill="#263238"/>
      <circle id="Ellipse_50" data-name="Ellipse 50" cx="0.583" cy="0.583" r="0.583" transform="translate(61.53 242.331)" fill="#263238"/>
      <path id="Path_4340" data-name="Path 4340" d="M70.95,366.448a.6.6,0,0,1,.6-.6h.014a.583.583,0,0,1,.569.6h0a.583.583,0,0,1-.583.583h-.014a.584.584,0,0,1-.583-.583Z" transform="translate(-6.119 -123.533)" fill="#263238"/>
      <path id="Path_4341" data-name="Path 4341" d="M71.95,368.163a.583.583,0,0,1,.583-.583h0a.6.6,0,0,1,.6.6v.014a.582.582,0,0,1-.6.569h0a.584.584,0,0,1-.583-.583Z" transform="translate(-5.696 -122.802)" fill="#263238"/>
      <path id="Path_4342" data-name="Path 4342" d="M69.64,368.163a.583.583,0,0,1,.583-.583h0a.6.6,0,0,1,.6.6v.014a.582.582,0,0,1-.6.569h0a.584.584,0,0,1-.583-.583Z" transform="translate(-6.674 -122.802)" fill="#263238"/>
      <path id="Path_4343" data-name="Path 4343" d="M67.36,368.163a.583.583,0,0,1,.583-.583h0a.6.6,0,0,1,.6.6v.014a.582.582,0,0,1-.6.569h0a.584.584,0,0,1-.583-.583Z" transform="translate(-7.638 -122.802)" fill="#263238"/>
      <path id="Path_4344" data-name="Path 4344" d="M65.082,368.022a.6.6,0,1,1,0,.184A.659.659,0,0,1,65.082,368.022Z" transform="translate(-8.604 -122.829)" fill="#263238"/>
      <path id="Path_4345" data-name="Path 4345" d="M62.8,368.178a.6.6,0,0,1,.6-.6h.014a.583.583,0,0,1,.569.6h0a.583.583,0,0,1-.583.583h-.014a.584.584,0,0,1-.583-.583Z" transform="translate(-9.567 -122.802)" fill="#263238"/>
      <path id="Path_4346" data-name="Path 4346" d="M60.52,368.178a.6.6,0,0,1,.6-.6h.014a.583.583,0,0,1,.569.6h0a.583.583,0,0,1-.583.583H61.1a.584.584,0,0,1-.583-.583Z" transform="translate(-10.531 -122.802)" fill="#263238"/>
      <path id="Path_4347" data-name="Path 4347" d="M58.24,368.178a.6.6,0,0,1,.6-.6h.014a.583.583,0,0,1,.569.6h0a.583.583,0,0,1-.583.583h-.014a.584.584,0,0,1-.583-.583Z" transform="translate(-11.495 -122.802)" fill="#263238"/>
      <path id="Path_4348" data-name="Path 4348" d="M59.29,369.689a.583.583,0,0,1,.6-.569h0a.583.583,0,0,1,.583.583v.014a.582.582,0,0,1-.583.583h0a.6.6,0,0,1-.6-.6Z" transform="translate(-11.051 -122.15)" fill="#263238"/>
      <path id="Path_4349" data-name="Path 4349" d="M61.63,369.7a.584.584,0,0,1,.583-.583h.014a.583.583,0,0,1,.583.583h0a.6.6,0,0,1-.6.6H62.2a.585.585,0,0,1-.569-.6Z" transform="translate(-10.062 -122.15)" fill="#263238"/>
      <path id="Path_4350" data-name="Path 4350" d="M63.95,369.7a.584.584,0,0,1,.583-.583h.014a.583.583,0,0,1,.583.583h0a.6.6,0,0,1-.6.6h-.014a.585.585,0,0,1-.569-.6Z" transform="translate(-9.08 -122.15)" fill="#263238"/>
      <path id="Path_4351" data-name="Path 4351" d="M66.29,369.7a.584.584,0,0,1,.583-.583h.014a.583.583,0,0,1,.583.583h0a.6.6,0,0,1-.6.6h-.014a.585.585,0,0,1-.569-.6Z" transform="translate(-8.091 -122.15)" fill="#263238"/>
      <path id="Path_4352" data-name="Path 4352" d="M69.122,369.182a.6.6,0,0,1,.682.5.567.567,0,0,1,0,.183.6.6,0,1,1-.682-.682Z" transform="translate(-7.107 -122.127)" fill="#263238"/>
      <path id="Path_4353" data-name="Path 4353" d="M70.95,369.689a.583.583,0,0,1,.6-.569h0a.583.583,0,0,1,.583.583v.014a.582.582,0,0,1-.583.583h0a.6.6,0,0,1-.6-.6Z" transform="translate(-6.119 -122.15)" fill="#263238"/>
      <path id="Path_4354" data-name="Path 4354" d="M71.95,371.433a.584.584,0,0,1,.583-.583h.014a.583.583,0,0,1,.583.583h0a.6.6,0,0,1-.6.6h-.014a.585.585,0,0,1-.569-.6Z" transform="translate(-5.697 -121.418)" fill="#263238"/>
      <path id="Path_4355" data-name="Path 4355" d="M69.64,371.433a.584.584,0,0,1,.583-.583h.014a.583.583,0,0,1,.583.583h0a.6.6,0,0,1-.6.6h-.014a.585.585,0,0,1-.569-.6Z" transform="translate(-6.674 -121.418)" fill="#263238"/>
      <path id="Path_4356" data-name="Path 4356" d="M67.36,371.433a.584.584,0,0,1,.583-.583h.014a.583.583,0,0,1,.583.583h0a.6.6,0,0,1-.6.6h-.014a.585.585,0,0,1-.569-.6Z" transform="translate(-7.638 -121.418)" fill="#263238"/>
      <path id="Path_4357" data-name="Path 4357" d="M65.582,370.912a.6.6,0,0,1,.682.5.568.568,0,0,1,0,.184.6.6,0,1,1-.682-.682Z" transform="translate(-8.604 -121.395)" fill="#263238"/>
      <path id="Path_4358" data-name="Path 4358" d="M62.8,371.419a.583.583,0,0,1,.6-.569h0a.583.583,0,0,1,.583.583v.014a.582.582,0,0,1-.583.583h0a.6.6,0,0,1-.6-.6Z" transform="translate(-9.567 -121.418)" fill="#263238"/>
      <path id="Path_4359" data-name="Path 4359" d="M60.52,371.419a.583.583,0,0,1,.6-.569h0a.583.583,0,0,1,.583.583v.014a.582.582,0,0,1-.583.583h0a.6.6,0,0,1-.6-.6Z" transform="translate(-10.531 -121.418)" fill="#263238"/>
      <path id="Path_4360" data-name="Path 4360" d="M58.24,371.419a.583.583,0,0,1,.6-.569h0a.583.583,0,0,1,.583.583v.014a.582.582,0,0,1-.583.583h0a.6.6,0,0,1-.6-.6Z" transform="translate(-11.495 -121.418)" fill="#263238"/>
      <circle id="Ellipse_51" data-name="Ellipse 51" cx="0.583" cy="0.583" r="0.583" transform="translate(48.253 251.623)" fill="#263238"/>
      <circle id="Ellipse_52" data-name="Ellipse 52" cx="0.583" cy="0.583" r="0.583" transform="translate(51.569 251.623)" fill="#263238"/>
      <path id="Path_4361" data-name="Path 4361" d="M63.95,372.966a.583.583,0,0,1,.583-.583.575.575,0,0,1,.185,0,.6.6,0,0,1-.185,1.181h0a.584.584,0,0,1-.583-.583Z" transform="translate(-9.08 -120.773)" fill="#263238"/>
      <circle id="Ellipse_53" data-name="Ellipse 53" cx="0.583" cy="0.583" r="0.583" transform="translate(58.2 251.623)" fill="#263238"/>
      <circle id="Ellipse_54" data-name="Ellipse 54" cx="0.583" cy="0.583" r="0.583" transform="translate(61.53 251.623)" fill="#263238"/>
      <path id="Path_4362" data-name="Path 4362" d="M71.548,372.38a.591.591,0,1,1-.6.6A.6.6,0,0,1,71.548,372.38Z" transform="translate(-6.119 -120.771)" fill="#263238"/>
      <path id="Path_4363" data-name="Path 4363" d="M106.353,272a12.979,12.979,0,0,0-5.436,3.714,24.343,24.343,0,0,0-4.781,9.32,95.358,95.358,0,0,0-3,13.7,176.225,176.225,0,0,0-.74,36.5,20.854,20.854,0,0,0,3.088,9.833,12.325,12.325,0,0,0,3.8,3.671,8.248,8.248,0,0,0,5.108,1.21,7.873,7.873,0,0,0,4.824-2.248,5.11,5.11,0,0,0,1.423-4.938,5.831,5.831,0,0,0-3.5-3.97,3.931,3.931,0,0,0-2.647,0,5.072,5.072,0,0,0-2.177,1.651,7,7,0,0,0-1.238,5.35,15.322,15.322,0,0,0,1.964,5.336,20.989,20.989,0,0,0,28.2,8.225,24.178,24.178,0,0,0,7.5-6.418,31.911,31.911,0,0,0,4.6-8.168,54.683,54.683,0,0,0,3.173-16.606c.313-5.194.057-9.932.612-14.073a24.075,24.075,0,0,1,1.423-5.692,15.781,15.781,0,0,1,2.49-4.269,11.642,11.642,0,0,1,5.45-3.856,7.578,7.578,0,0,1,2.319-.413,16.937,16.937,0,0,0-2.262.541,11.981,11.981,0,0,0-5.293,3.913,15.877,15.877,0,0,0-2.376,4.155,24.082,24.082,0,0,0-1.323,5.55c-.5,4.1-.228,8.837-.5,14.059a54.728,54.728,0,0,1-3.116,16.791,32.409,32.409,0,0,1-4.738,8.3,24.755,24.755,0,0,1-7.684,6.617,21.671,21.671,0,0,1-29.171-8.452,16.021,16.021,0,0,1-2.063-5.606,7.77,7.77,0,0,1,1.423-5.891,5.611,5.611,0,0,1,2.5-1.893,4.679,4.679,0,0,1,3.145,0,6.559,6.559,0,0,1,3.97,4.482,5.457,5.457,0,0,1,0,3.059,6.434,6.434,0,0,1-1.551,2.576,8.618,8.618,0,0,1-5.279,2.462,8.991,8.991,0,0,1-5.55-1.323,13.082,13.082,0,0,1-4.013-3.885,21.5,21.5,0,0,1-3.187-10.16,173.628,173.628,0,0,1,.911-36.641,93.3,93.3,0,0,1,3.116-13.76,24.406,24.406,0,0,1,4.966-9.392,12.928,12.928,0,0,1,5.606-3.657,7.447,7.447,0,0,1,2.305-.413A17.272,17.272,0,0,0,106.353,272Z" transform="translate(2.433 -163.529)" fill="#e0e0e0"/>
      <rect id="Rectangle_1364" data-name="Rectangle 1364" width="47.271" height="9.007" transform="translate(122.248 128.351)" fill="#e0e0e0"/>
      <rect id="Rectangle_1365" data-name="Rectangle 1365" width="61.657" height="132.72" transform="translate(463.475 221.47)" fill="#263238"/>
      <path id="Path_4364" data-name="Path 4364" d="M354.77,467.985V460.1c-.1-5.521-.1-13.547-.1-23.621-.043-20.291-.171-48.865-.171-82.105v-.356h52.322v.37c-.114,44.34-.114,84.61-.114,114.15v.27h-.256l-37.837-.142H358.484l10.3-.071,37.666-.142-.27.27c-.1-29.541-.1-69.811-.1-114.15l.37.37H354.87l.356-.342c-.071,33.141-.171,61.629-.171,81.863-.1,10.117-.1,18.157-.1,23.707v8.581A2.046,2.046,0,0,1,354.77,467.985Z" transform="translate(113.812 -128.537)" fill="#455a64"/>
      <path id="Path_4365" data-name="Path 4365" d="M357.035,361.412c-.085-.968-.085-2.277-.085-3.942v-.156h.057c7.983-.128,25.087-.213,44.852-.213h0l.384.37h0v5.592h-.37c-12.693,0-23.977-.071-32.031-.157l-9.449-.1h-2.533a5.9,5.9,0,0,1-.84,0,4.716,4.716,0,0,1,.939,0h2.6l9.548-.1c8.068-.071,19.224-.157,31.761-.157l-.356.37V357.7h0l.37.37h0c-19.765,0-36.869-.085-44.852-.213l.157-.157c-.085,1.622-.085,2.917-.085,3.842v1.423A12.271,12.271,0,0,1,357.035,361.412Z" transform="translate(114.849 -127.234)" fill="#455a64"/>
      <path id="Path_4366" data-name="Path 4366" d="M387.473,363.6c1.153,0,2.078.171,2.078.37s-.939.37-2.078.37-2.063-.171-2.063-.37S386.321,363.6,387.473,363.6Z" transform="translate(126.886 -124.485)" fill="#455a64"/>
      <path id="Path_4367" data-name="Path 4367" d="M379.245,368.41c11.811,0,21.344.171,21.344.37s-9.548.37-21.344.37-21.344-.171-21.344-.37S367.434,368.41,379.245,368.41Z" transform="translate(115.25 -122.45)" fill="#455a64"/>
      <path id="Path_4368" data-name="Path 4368" d="M378.73,374.22c11.583,0,20.96.156,20.96.37s-9.392.37-20.96.37-20.96-.157-20.96-.37S367.147,374.22,378.73,374.22Z" transform="translate(115.195 -119.993)" fill="#455a64"/>
      <circle id="Ellipse_55" data-name="Ellipse 55" cx="3.387" cy="3.387" r="3.387" transform="translate(491.094 270.548)" fill="#ff4500"/>
      <path id="Path_4369" data-name="Path 4369" d="M384.107,387.754a13.843,13.843,0,0,1,4.525.37,27.681,27.681,0,0,1-9.022,0A13.993,13.993,0,0,1,384.107,387.754Z" transform="translate(124.433 -114.289)" fill="#455a64"/>
      <path id="Path_4370" data-name="Path 4370" d="M364.519,387.092a13.071,13.071,0,0,1,4.269.37,24.816,24.816,0,0,1-8.538,0A13.154,13.154,0,0,1,364.519,387.092Z" transform="translate(116.244 -114.566)" fill="#455a64"/>
      <path id="Path_4371" data-name="Path 4371" d="M403.774,438.778c.384-.085.953-.213,1.679-.427a21.028,21.028,0,0,0,5.991-2.931,26.093,26.093,0,0,0,7.115-7.656,44.81,44.81,0,0,0,5.208-12.935A53.169,53.169,0,0,0,425.36,398a34.367,34.367,0,0,0-6.4-18.043,28.6,28.6,0,0,0-7.57-7.115,25.293,25.293,0,0,0-4.824-2.391,27.614,27.614,0,0,0-5.35-1.266c-3.671-.5-7.5-.427-11.384-.655a29.024,29.024,0,0,1-11.554-2.675,14.674,14.674,0,0,1-4.767-3.714A12.807,12.807,0,0,1,383.6,341.276a9.08,9.08,0,0,1,5.137,1.921,5.874,5.874,0,0,1,2.234,4.866,7.541,7.541,0,0,1-6.987,6.745,11.042,11.042,0,0,1-8.637-3.885,20.219,20.219,0,0,1-4.027-7.983,66.493,66.493,0,0,1-1.608-8.068,125.652,125.652,0,0,1-.527-24.717c.171-2.917.356-5.165.47-6.7.071-.74.157-1.309.157-1.736a3.252,3.252,0,0,1,.085-.6,2.99,2.99,0,0,1,0,.6,13.967,13.967,0,0,0-.085,1.75c-.085,1.565-.2,3.856-.342,6.7a131.7,131.7,0,0,0,.754,24.632,66.876,66.876,0,0,0,1.636,7.983,19.584,19.584,0,0,0,4.013,7.755,10.46,10.46,0,0,0,8.139,3.657,6.9,6.9,0,0,0,6.346-6.133,5.149,5.149,0,0,0-1.992-4.269,8.542,8.542,0,0,0-4.753-1.764,11.995,11.995,0,0,0-11.981,14.657,12.636,12.636,0,0,0,7,8.538,28.343,28.343,0,0,0,11.256,2.59c3.785.228,7.627.157,11.384.683a27.591,27.591,0,0,1,5.493,1.309,26.892,26.892,0,0,1,4.966,2.462,29.034,29.034,0,0,1,7.727,7.343,34.85,34.85,0,0,1,6.475,18.413A53.2,53.2,0,0,1,424.293,415a44.331,44.331,0,0,1-5.365,13.034,26.145,26.145,0,0,1-7.357,7.67,20.2,20.2,0,0,1-6.1,2.846,13.212,13.212,0,0,1-2.305.427A2.655,2.655,0,0,1,403.774,438.778Z" transform="translate(119.864 -150.912)" fill="#263238"/>
      <rect id="Rectangle_1366" data-name="Rectangle 1366" width="145.996" height="100.262" transform="translate(398.018 15.581)" fill="#263238"/>
      <rect id="Rectangle_1367" data-name="Rectangle 1367" width="19.879" height="37.822" transform="translate(462.422 102.169)" fill="#263238"/>
    </g>
    <g id="freepik--Desk--inject-13" transform="translate(1056.304 565.517)">
      <path id="Path_4372" data-name="Path 4372" d="M79.69,292.09v16.35l48.552-.384V509.59h6.8V308.426l314.6-1.551V509.59h6.93V306.875h75.332v-13.6Z" transform="translate(-79.69 -288.248)" fill="#263238"/>
      <path id="Path_4373" data-name="Path 4373" d="M375.269,301.929l-29.953,22.554-2.576-2.476,29.7-21.387Z" transform="translate(31.571 -284.64)" fill="#263238"/>
      <path id="Path_4374" data-name="Path 4374" d="M92.15,303.329l34.706,25.713,2.59-2.476L94.982,302.02Z" transform="translate(-74.42 -284.048)" fill="#263238"/>
      <rect id="Rectangle_1368" data-name="Rectangle 1368" width="77.865" height="5.735" transform="translate(264.814)" fill="#263238"/>
    </g>
    <rect id="Rectangle_1369" data-name="Rectangle 1369" width="26.919" height="5.395" rx="1.896" transform="translate(1073.397 390.233)" fill="#ff4500"/>
    <rect id="Rectangle_1370" data-name="Rectangle 1370" width="29.586" height="5.395" rx="1.896" transform="translate(1073.397 448.153)"/>
    <rect id="Rectangle_1371" data-name="Rectangle 1371" width="159.105" height="5.395" rx="1.896" transform="translate(1073.397 464.207)"/>
    <rect id="Rectangle_1372" data-name="Rectangle 1372" width="99.459" height="5.395" rx="1.896" transform="translate(1073.397 471.944)"/>
    <rect id="Rectangle_1373" data-name="Rectangle 1373" width="123.086" height="5.395" rx="1.896" transform="translate(1073.397 487.581)"/>
    <rect id="Rectangle_1374" data-name="Rectangle 1374" width="27.348" height="5.395" rx="1.896" transform="translate(1087.938 402.991)"/>
    <rect id="Rectangle_1375" data-name="Rectangle 1375" width="101.64" height="5.395" rx="1.896" transform="translate(1087.938 418.582)"/>
    <rect id="Rectangle_1376" data-name="Rectangle 1376" width="101.64" height="5.395" rx="1.896" transform="translate(1087.938 434.681)"/>
  </g>
</svg>
